<svg width="52" height="52" viewBox="0 0 52 52" fill="none" xmlns="http://www.w3.org/2000/svg">
<path d="M0 25.9897C0 13.738 0 7.61219 3.80666 3.80609C7.61333 0 13.7401 0 25.9935 0C38.247 0 44.3737 0 48.1805 3.80609C51.9871 7.61219 51.9871 13.738 51.9871 25.9897C51.9871 38.2413 51.9871 44.3671 48.1805 48.1732C44.3737 51.9793 38.247 51.9793 25.9935 51.9793C13.7401 51.9793 7.61333 51.9793 3.80666 48.1732C0 44.3671 0 38.2413 0 25.9897Z" fill="#2DDAF8"/>
<path d="M31.1929 33.7871C31.9107 33.7871 32.5057 34.3747 32.3631 35.0783C32.1111 36.3208 31.4989 37.4725 30.5891 38.3823C29.3705 39.601 27.7175 40.2857 25.994 40.2857C24.2704 40.2857 22.6175 39.601 21.3988 38.3823C20.489 37.4725 19.8768 36.3208 19.6249 35.0783C19.4822 34.3747 20.0772 33.7871 20.795 33.7871H31.1929Z" fill="#080C25"/>
<path d="M33.9246 23.1032C33.231 23.289 32.8063 24.0145 33.158 24.6404C33.5281 25.2992 34.04 25.8742 34.6628 26.3205C35.6406 27.0212 36.8311 27.3612 38.0316 27.2825C39.232 27.2038 40.368 26.7114 41.246 25.889C42.1241 25.0667 42.6897 23.9652 42.8468 22.7725C43.0038 21.5798 42.7425 20.3696 42.1072 19.348C41.4719 18.3265 40.502 17.5568 39.3629 17.17C38.2238 16.7833 36.9858 16.8036 35.8599 17.2273C35.1429 17.4972 34.4997 17.9201 33.9716 18.4606C33.47 18.9742 33.6924 19.785 34.3142 20.1439L34.9736 20.5247C35.9765 21.1038 35.7788 22.6064 34.6601 22.9062L33.9246 23.1032Z" fill="#080C25"/>
<path d="M18.0647 23.1032C18.7582 23.289 19.1829 24.0145 18.8312 24.6404C18.4612 25.2992 17.9492 25.8742 17.3266 26.3205C16.3487 27.0212 15.1581 27.3612 13.9577 27.2825C12.7573 27.2038 11.6213 26.7114 10.7432 25.889C9.8652 25.0667 9.29948 23.9652 9.14246 22.7725C8.98544 21.5798 9.24682 20.3696 9.88209 19.348C10.5173 18.3265 11.4872 17.5568 12.6263 17.17C13.7655 16.7833 15.0035 16.8036 16.1294 17.2273C16.8464 17.4972 17.4897 17.9201 18.0177 18.4606C18.5194 18.9742 18.2968 19.785 17.6751 20.1439L17.0156 20.5247C16.0127 21.1038 16.2106 22.6064 17.3292 22.9062L18.0647 23.1032Z" fill="#080C25"/>
</svg>
